<svg width="100" height="34" viewBox="0 0 100 34" fill="none" xmlns="http://www.w3.org/2000/svg">
<path d="M42.5551 17.436C42.5551 22.1553 38.8823 25.6329 34.375 25.6329C29.8676 25.6329 26.1948 22.1553 26.1948 17.436C26.1948 12.6834 29.8676 9.23901 34.375 9.23901C38.8823 9.23901 42.5551 12.6834 42.5551 17.436ZM38.9742 17.436C38.9742 14.4868 36.8456 12.469 34.375 12.469C31.9044 12.469 29.7757 14.4868 29.7757 17.436C29.7757 20.3555 31.9044 22.4029 34.375 22.4029C36.8456 22.4029 38.9742 20.3518 38.9742 17.436Z" fill="white"/>
<path d="M60.2022 17.436C60.2022 22.1553 56.5294 25.6329 52.0221 25.6329C47.5147 25.6329 43.8419 22.1553 43.8419 17.436C43.8419 12.6871 47.5147 9.23901 52.0221 9.23901C56.5294 9.23901 60.2022 12.6834 60.2022 17.436ZM56.6213 17.436C56.6213 14.4868 54.4927 12.469 52.0221 12.469C49.5515 12.469 47.4228 14.4868 47.4228 17.436C47.4228 20.3555 49.5515 22.4029 52.0221 22.4029C54.4927 22.4029 56.6213 20.3518 56.6213 17.436Z" fill="white"/>
<path d="M77.1139 9.73423V24.4503C77.1139 30.5038 73.5625 32.9762 69.3639 32.9762C65.4117 32.9762 63.033 30.319 62.136 28.146L65.2536 26.8414C65.8088 28.1755 67.1691 29.7499 69.3602 29.7499C72.0477 29.7499 73.7132 28.0831 73.7132 24.9455V23.7666H73.5882C72.7867 24.7608 71.2426 25.6292 69.2941 25.6292C65.2169 25.6292 61.4816 22.0592 61.4816 17.4655C61.4816 12.8386 65.2169 9.23901 69.2941 9.23901C71.2389 9.23901 72.783 10.1075 73.5882 11.0721H73.7132V9.73793H77.1139V9.73423ZM73.9669 17.4655C73.9669 14.5792 72.0514 12.469 69.6139 12.469C67.1433 12.469 65.0735 14.5792 65.0735 17.4655C65.0735 20.3223 67.1433 22.4029 69.6139 22.4029C72.0514 22.4029 73.9669 20.3223 73.9669 17.4655Z" fill="white"/>
<path d="M82.7206 1.10864V25.1304H79.2279V1.10864H82.7206Z" fill="white"/>
<path d="M96.3309 20.1338L99.1103 21.9964C98.2132 23.3306 96.0515 25.6293 92.3162 25.6293C87.6838 25.6293 84.2242 22.0297 84.2242 17.4323C84.2242 12.5577 87.7132 9.23535 91.9154 9.23535C96.147 9.23535 98.2169 12.6206 98.8934 14.4499L99.2647 15.3812L88.364 19.9195C89.1985 21.564 90.4963 22.403 92.3162 22.403C94.1397 22.403 95.4044 21.5012 96.3309 20.1338ZM87.7757 17.1847L95.0625 14.1432C94.6617 13.1195 93.4559 12.4062 92.0367 12.4062C90.2169 12.4062 87.6838 14.0212 87.7757 17.1847V17.1847Z" fill="white"/>
<path d="M12.9742 15.3036V11.826H24.6323C24.7463 12.4321 24.8051 13.149 24.8051 13.9251C24.8051 16.5342 24.0956 19.7605 21.8088 22.0592C19.5845 24.3875 16.7426 25.6292 12.9779 25.6292C5.99997 25.6292 0.132324 19.9158 0.132324 12.9014C0.132324 5.88706 5.99997 0.173584 12.9779 0.173584C16.8382 0.173584 19.5882 1.69619 21.6544 3.68076L19.2132 6.13467C17.7316 4.73771 15.7242 3.65119 12.9742 3.65119C7.87865 3.65119 3.89335 7.77924 3.89335 12.9014C3.89335 18.0236 7.87865 22.1516 12.9742 22.1516C16.2794 22.1516 18.1617 20.8175 19.3676 19.6053C20.3456 18.6223 20.9889 17.2179 21.2426 15.2999L12.9742 15.3036V15.3036Z" fill="white"/>
</svg>
