<svg width="82" height="80" viewBox="0 0 82 80" fill="none" xmlns="http://www.w3.org/2000/svg">
<rect width="82" height="80" rx="12" fill="#34E0A1"/>
<path d="M62.75 32.9027L67 28.1938H57.5752C52.8569 24.9116 47.1586 23 40.9961 23C34.8413 23 29.1589 24.9157 24.4484 28.1938H15L19.25 32.9027C16.645 35.3232 15.0118 38.8098 15.0118 42.6811C15.0118 49.9868 20.8282 55.9099 28.0021 55.9099C31.41 55.9099 34.5148 54.5715 36.8327 52.3833L40.9961 57L45.1596 52.3873C47.4775 54.5755 50.5784 55.9099 53.9863 55.9099C61.1602 55.9099 66.9843 49.9868 66.9843 42.6811C66.9882 38.8058 65.3551 35.3193 62.75 32.9027ZM28.0059 51.6339C23.1498 51.6339 19.2147 47.6265 19.2147 42.6811C19.2147 37.7357 23.1499 33.7282 28.0059 33.7282C32.8619 33.7282 36.7972 37.7357 36.7972 42.6811C36.7972 47.6265 32.8619 51.6339 28.0059 51.6339ZM41 42.4206C41 36.5295 36.7933 31.472 31.2407 29.3119C34.2432 28.0334 37.537 27.3241 40.9961 27.3241C44.4551 27.3241 47.7527 28.0334 50.7554 29.3119C45.2068 31.476 41 36.5296 41 42.4206ZM53.9902 51.6339C49.1341 51.6339 45.1989 47.6265 45.1989 42.6811C45.1989 37.7357 49.1341 33.7282 53.9902 33.7282C58.8463 33.7282 62.7815 37.7357 62.7815 42.6811C62.7815 47.6265 58.8462 51.6339 53.9902 51.6339ZM53.9902 37.9842C51.4441 37.9842 49.382 40.0842 49.382 42.6771C49.382 45.2699 51.4441 47.3699 53.9902 47.3699C56.5363 47.3699 58.5984 45.2699 58.5984 42.6771C58.5983 40.0882 56.5363 37.9842 53.9902 37.9842ZM32.614 42.6811C32.614 45.2739 30.552 47.3739 28.0059 47.3739C25.4599 47.3739 23.3978 45.2739 23.3978 42.6811C23.3978 40.0882 25.4599 37.9882 28.0059 37.9882C30.552 37.9842 32.614 40.0882 32.614 42.6811Z" fill="black"/>
</svg>
