<svg width="50" height="50" viewBox="0 0 50 50" fill="none" xmlns="http://www.w3.org/2000/svg">
<g opacity="0.75">
<path d="M16.8579 5.46875C10.5804 5.46875 5.46875 10.5835 5.46875 16.864V33.139C5.46875 39.4196 10.5835 44.5312 16.864 44.5312H33.139C39.4196 44.5312 44.5312 39.4165 44.5312 33.136V16.8579C44.5312 10.5804 39.4165 5.46875 33.136 5.46875H16.8579ZM36.7188 11.7188C37.5824 11.7188 38.2812 12.4176 38.2812 13.2812C38.2812 14.1449 37.5824 14.8438 36.7188 14.8438C35.8551 14.8438 35.1562 14.1449 35.1562 13.2812C35.1562 12.4176 35.8551 11.7188 36.7188 11.7188ZM25 14.8438C30.603 14.8438 35.1562 19.397 35.1562 25C35.1562 30.603 30.6 35.1562 25 35.1562C19.397 35.1562 14.8438 30.6 14.8438 25C14.8438 19.4 19.397 14.8438 25 14.8438ZM25 17.9688C21.1151 17.9688 17.9688 21.1151 17.9688 25C17.9688 28.8849 21.1151 32.0312 25 32.0312C28.8849 32.0312 32.0312 28.8849 32.0312 25C32.0312 21.1151 28.8849 17.9688 25 17.9688Z" fill="white"/>
</g>
</svg>
