<svg width="50" height="50" viewBox="0 0 50 50" fill="none" xmlns="http://www.w3.org/2000/svg">
<g opacity="0.75">
<path d="M37.5 6.25H12.5C9.04846 6.25 6.25 9.04846 6.25 12.5V37.5C6.25 40.9515 9.04846 43.75 12.5 43.75H37.5C40.9515 43.75 43.75 40.9515 43.75 37.5V12.5C43.75 9.04846 40.9515 6.25 37.5 6.25ZM18.75 36.7188H14.8438V21.0938H18.75V36.7188ZM18.7714 17.9749C18.2678 18.4906 17.6086 18.75 16.7969 18.75C15.9943 18.75 15.3412 18.4845 14.8285 17.9504C14.3188 17.4194 14.0625 16.7633 14.0625 15.9912C14.0625 15.1947 14.3188 14.5447 14.8285 14.0381C15.3412 13.5345 15.9943 13.2812 16.7969 13.2812C17.6086 13.2812 18.2678 13.5345 18.7714 14.0381C19.278 14.5416 19.5312 15.1947 19.5312 15.9912C19.5312 16.7999 19.278 17.4591 18.7714 17.9749ZM36.7188 36.7188H32.8125V28.0365C32.8125 25.6165 31.4178 24.2188 29.6875 24.2188C28.8544 24.2188 27.9114 24.7253 27.3712 25.3662C26.8311 26.0071 26.5625 26.8219 26.5625 27.8076V36.7188H22.6562V21.0938H26.5625V23.5657H26.6235C27.774 21.6644 29.4464 20.7184 31.6437 20.7123C34.7656 20.7031 36.7188 23.0469 36.7188 27.1515V36.7188Z" fill="white"/>
</g>
</svg>
