<svg width="7" height="12" viewBox="0 0 7 12" fill="none" xmlns="http://www.w3.org/2000/svg">
<path d="M1.00113 0C0.596538 0 0.230848 0.245587 0.0791253 0.621764C-0.0745424 0.997941 0.016881 1.43064 0.30671 1.71326L3.58625 4.99945C4.59374 5.99934 4.59374 6 3.58625 6.99533L0.30671 10.2815C0.0460585 10.531 -0.0589812 10.9033 0.0324414 11.2541C0.123864 11.603 0.396186 11.8759 0.74437 11.9675C1.0945 12.0591 1.46602 11.9538 1.715 11.6927L6.60708 6.79067C6.85411 6.60161 6.99805 6.30925 7 5.99934C7 5.68943 6.85606 5.39512 6.61097 5.20605C6.60902 5.20411 6.60708 5.2041 6.60513 5.20216L1.715 0.302111C1.52827 0.10915 1.26956 0 1.00113 0Z" fill="white"/>
</svg>
