<svg width="136" height="22" viewBox="0 0 136 22" fill="none" xmlns="http://www.w3.org/2000/svg">
<g clip-path="url(#clip0_1_224)">
<path d="M17.8627 4.20299C12.7204 4.20299 10.2846 6.17314 10.2846 9.25971V16.8119C10.2846 19.8985 12.7204 21.9343 17.9304 21.9343C23.208 21.9343 25.6438 19.9642 25.6438 16.8119V9.25971C25.6438 6.17314 23.208 4.20299 17.998 4.20299H17.8627ZM20.9752 16.4179C20.9752 17.7313 19.9602 18.2567 17.9304 18.2567C16.0358 18.2567 14.9533 17.6 14.9533 16.2866V9.58806C14.9533 8.27463 15.9682 7.74926 17.998 7.74926C20.0279 7.74926 21.1105 8.40597 21.1105 9.58806V16.4836L20.9752 16.4179ZM120.235 6.56716V4.40001H115.634V21.4746H120.37V10.5731C121.047 9.91642 122.806 8.73433 125.377 8.60299H126.257V4.20299H125.445C122.874 4.20299 121.182 5.71344 120.235 6.69852V6.56716ZM106.432 4.13732C101.29 4.13732 99.1921 6.10747 99.1921 9.12836V10.0478H103.522V9.25971C103.522 8.14329 104.199 7.61791 106.229 7.61791C108.259 7.61791 108.935 8.27463 108.935 9.58806V11.7552H103.996C100.478 11.7552 98.5831 13.7254 98.5831 16.0896V17.6657C98.5831 19.9642 100.275 22 103.793 22C106.364 22 108.056 20.9493 109.206 20.0299V21.7373H113.536V9.25971C113.536 6.10747 111.642 4.20299 106.432 4.20299V4.13732ZM108.935 16.8119C108.123 17.4687 106.635 18.3224 105.011 18.3224C103.861 18.3224 103.184 17.9284 103.184 17.009V16.3522C103.184 15.4985 103.522 14.8418 104.876 14.8418H108.935V16.8119ZM4.80401 0.0656756H0.067688V16.4836C0.067688 19.8985 1.62391 21.606 6.83386 21.606H8.72838V17.797H7.57814C5.54829 17.797 4.73634 17.2716 4.73634 16.0239V8.60299H8.93137V4.33433H4.73634V0.0656756H4.80401ZM55.5503 8.60299V4.20299H54.603C52.0319 4.20299 50.3403 5.71344 49.3931 6.69852V4.53135H44.7921V21.606H49.5284V10.5731C50.205 9.91642 51.9642 8.73433 54.5354 8.60299H55.5503ZM38.1612 16.4836C37.4846 17.009 35.996 17.994 34.2368 17.994C32.7483 17.994 32.3423 17.3373 32.3423 16.1552V4.46567H27.606V17.2716C27.606 19.8985 29.6358 21.8687 32.8159 21.8687C35.7254 21.8687 37.4169 20.7522 38.3642 19.8985V21.606H42.8975V4.53135H38.1612V16.4836ZM92.0876 5.97612C91.0727 5.18806 89.3811 4.20299 86.6747 4.20299C83.0886 4.20299 81.4647 6.17314 81.4647 9.25971V16.8776C81.4647 19.9642 83.0886 21.9343 86.607 21.9343C89.4488 21.9343 91.3433 20.7522 92.2229 19.9642V21.6716H96.6886V0H91.9523V5.91045L92.0876 5.97612ZM92.0876 16.4836C91.411 16.9433 89.7871 17.994 88.0279 17.994C86.2687 17.994 86.1334 17.0746 86.1334 16.1552V9.91642C86.1334 8.99702 86.3363 8.14329 88.0279 8.14329C89.7871 8.14329 91.411 9.19403 92.0876 9.71941V16.4836ZM128.828 4.99105H129.91V7.74926H130.587V4.99105H131.737V4.46567H128.828V4.99105ZM135.053 4.46567L134.173 6.82986L133.226 4.46567H132.211V7.74926H132.888V5.12239L133.903 7.74926H134.444L135.391 5.12239V7.74926H136.068V4.46567" fill="white"/>
<path d="M72.2627 4.20288C67.188 4.20288 65.0905 6.17302 65.0905 9.19392V10.1133H69.4209V9.2596C69.4209 8.14318 70.0975 7.6178 72.1273 7.6178C74.1572 7.6178 74.8338 8.27452 74.8338 9.58795V11.7551H69.8945C66.3084 11.7551 64.4816 13.7253 64.4816 16.0894V17.6656C64.4816 19.9641 66.1055 21.9999 69.6239 21.9999C72.1273 21.9999 73.8189 20.9491 74.9015 20.0297V21.7372H79.2995V9.2596C79.2995 5.97601 77.2696 4.20288 72.1273 4.20288H72.2627ZM74.8338 16.8118C74.0219 17.4686 72.5333 18.3223 70.9094 18.3223C69.8269 18.3223 69.1502 17.9939 69.1502 17.0089V16.4835C69.1502 15.5641 69.4885 14.9074 70.8418 14.9074H74.9015V16.8775L74.8338 16.8118ZM57.7831 6.63273V10.573H56.7681C55.2119 10.7044 53.9264 11.2297 53.0468 11.6238V21.4745H57.7831V10.573C58.4597 9.91631 60.2189 8.73422 62.79 8.60288H63.7373V4.20288H62.79C60.3542 4.20288 58.7303 5.64765 57.7154 6.56705L57.7831 6.63273Z" fill="white"/>
</g>
<defs>
<clipPath id="clip0_1_224">
<rect width="136" height="22" fill="white"/>
</clipPath>
</defs>
</svg>
