<svg width="144" height="31" viewBox="0 0 144 31" fill="none" xmlns="http://www.w3.org/2000/svg">
<g clip-path="url(#clip0_1_227)">
<path d="M143.191 20.7147C142.744 20.7147 142.381 21.0818 142.381 21.5339C142.381 21.9859 142.744 22.353 143.191 22.353C143.637 22.353 144 21.9859 144 21.5339C144 21.0818 143.637 20.7147 143.191 20.7147ZM143.191 22.2231C142.814 22.2231 142.509 21.9131 142.509 21.5339C142.509 21.1528 142.816 20.8446 143.191 20.8446C143.567 20.8446 143.873 21.1546 143.873 21.5339C143.873 21.9131 143.567 22.2231 143.191 22.2231ZM143.454 21.3936C143.454 21.2446 143.35 21.1563 143.196 21.1563H142.937V21.9027H143.064V21.6326H143.202L143.336 21.9027H143.473L143.326 21.6049C143.404 21.5685 143.454 21.4957 143.454 21.3936ZM143.191 21.5165H143.066V21.2689H143.191C143.276 21.2689 143.327 21.3122 143.327 21.3919C143.327 21.4733 143.274 21.5165 143.191 21.5165ZM45.6589 12.4243V10.4431H42.6573V22.23H45.6589V15.1624C45.6589 13.8826 46.4701 13.2539 47.7347 13.2539H49.3776V10.4432H47.9743C46.8757 10.4431 45.9208 11.0233 45.6589 12.4243ZM52.1892 5.78101C51.1625 5.78101 50.3753 6.60191 50.3753 7.64102C50.3753 8.65588 51.1625 9.47678 52.1892 9.47678C53.216 9.47678 54.0032 8.65588 54.0032 7.64102C54.0032 6.60187 53.216 5.78101 52.1892 5.78101ZM50.6918 22.2301H53.6866V10.4431H50.6918V22.2301ZM67.9519 16.3366C67.9519 19.7015 65.2566 22.4293 61.9316 22.4293C60.5899 22.4293 59.3732 21.9842 58.3977 21.2325V25.6903H55.403V10.4431H58.3977V11.4406C59.3732 10.689 60.5899 10.2439 61.9316 10.2439C65.2566 10.2439 67.9519 12.9716 67.9519 16.3366ZM64.9384 16.3366C64.9384 14.5095 63.4735 13.027 61.6681 13.027C59.8626 13.027 58.3978 14.5095 58.3978 16.3366C58.3978 18.1637 59.8627 19.6461 61.6681 19.6461C63.4735 19.6461 64.9384 18.1654 64.9384 16.3366ZM120.003 15.3027L118.255 14.8178C117.105 14.5147 116.659 14.1579 116.659 13.5431C116.659 12.9439 117.288 12.5248 118.189 12.5248C119.046 12.5248 119.718 13.0928 119.718 13.8202V13.8877H122.479V13.8202C122.479 11.6813 120.756 10.2439 118.189 10.2439C115.647 10.2439 113.801 11.6796 113.801 13.6591C113.801 15.1987 114.809 16.359 116.568 16.8405L118.242 17.3029C119.513 17.6597 119.985 18.0546 119.985 18.7629C119.985 19.5093 119.303 20.0115 118.286 20.0115C117.227 20.0115 116.513 19.3326 116.513 18.3247V18.2572H113.583V18.3247C113.583 20.7424 115.507 22.4326 118.262 22.4326C120.916 22.4326 122.843 20.7822 122.843 18.51C122.843 17.3947 122.35 15.9366 120.003 15.3027ZM78.5757 10.4431H81.5704V22.23H78.5757V21.2325C77.6002 21.9841 76.3834 22.4292 75.0418 22.4292C71.7168 22.4292 69.0215 19.7015 69.0215 16.3365C69.0215 12.9715 71.7168 10.2439 75.0418 10.2439C76.3834 10.2439 77.6002 10.689 78.5757 11.4406V10.4431ZM78.5757 16.3366C78.5757 14.5078 77.1108 13.027 75.3053 13.027C73.4999 13.027 72.0351 14.5095 72.0351 16.3366C72.0351 18.1637 73.4999 19.6461 75.3053 19.6461C77.1124 19.6461 78.5757 18.1654 78.5757 16.3366ZM92.384 6.24859H95.3788V22.2318H92.384V21.2342C91.4086 21.9859 90.1919 22.4309 88.8502 22.4309C85.5252 22.4309 82.8299 19.7033 82.8299 16.3383C82.8299 12.9733 85.5251 10.2456 88.8502 10.2456C90.1919 10.2456 91.4086 10.6907 92.384 11.4423V6.24859ZM92.384 16.3366C92.384 14.5095 90.9191 13.027 89.1137 13.027C87.3084 13.027 85.8435 14.5095 85.8435 16.3366C85.8435 18.1637 87.3066 19.6461 89.1137 19.6461C90.9191 19.6461 92.384 18.1654 92.384 16.3366ZM109.283 22.2301H112.278V10.4431H109.283V22.2301ZM110.78 5.78101C109.754 5.78101 108.966 6.60191 108.966 7.64102C108.966 8.65588 109.754 9.47678 110.78 9.47678C111.807 9.47678 112.594 8.65588 112.594 7.64102C112.594 6.60187 111.807 5.78101 110.78 5.78101ZM135.787 16.3366C135.787 19.7015 133.092 22.4293 129.767 22.4293C126.442 22.4293 123.747 19.7016 123.747 16.3366C123.747 12.9716 126.442 10.2439 129.767 10.2439C133.092 10.2439 135.787 12.9716 135.787 16.3366ZM133.037 16.3366C133.037 14.5095 131.573 13.027 129.767 13.027C127.962 13.027 126.497 14.5095 126.497 16.3366C126.497 18.1637 127.96 19.6461 129.767 19.6461C131.573 19.6461 133.037 18.1654 133.037 16.3366ZM44.1256 6.24859H32.6377V8.95202H36.8903V22.23H39.8748V8.95202H44.1273V6.24859H44.1256ZM102.222 19.0019L99.5578 10.4432H96.4124L100.408 22.2301H104.012L108.032 10.4432H104.887L102.222 19.0019ZM140.175 12.4243V10.4431H137.174V22.23H140.175V15.1624C140.175 13.8826 140.986 13.2539 142.251 13.2539H143.894V10.4432H142.491C141.392 10.4431 140.439 11.0233 140.175 12.4243Z" fill="white"/>
<path fill-rule="evenodd" clip-rule="evenodd" d="M30.6323 15.5C30.6323 24.0604 23.775 31 15.3162 31C6.85741 31 0.000183105 24.0604 0.000183105 15.5C0.000183105 6.93959 6.85741 0 15.3162 0C23.775 0 30.6323 6.93959 30.6323 15.5ZM26.6244 10.4413L24.7762 12.4762C25.9091 13.5205 26.6193 15.0272 26.6176 16.7019C26.6176 19.8591 24.0849 22.4187 20.9652 22.4187C19.4832 22.4187 18.1348 21.842 17.1268 20.8964L15.3162 22.8898L13.5057 20.8947C12.4977 21.8403 11.1475 22.4187 9.66557 22.4187C6.54588 22.4187 4.01657 19.8591 4.01657 16.7019C4.01657 15.0289 4.72675 13.5222 5.85961 12.4762L4.01141 10.4413H8.12021C10.1686 9.02464 12.6397 8.19678 15.3162 8.19678C17.9961 8.19678 20.4741 9.02285 22.5259 10.4413H26.6244ZM5.84424 16.7019C5.84424 18.839 7.55548 20.5708 9.66724 20.5708C11.779 20.5708 13.4902 18.839 13.4902 16.7019C13.4902 14.5648 11.779 12.8329 9.66724 12.8329C7.55553 12.8329 5.84424 14.5648 5.84424 16.7019ZM11.0739 10.9244C13.4886 11.8579 15.3179 14.0435 15.3179 16.5893C15.3179 14.0435 17.1473 11.8597 19.5602 10.9244C18.2544 10.372 16.8204 10.0654 15.3162 10.0654C13.812 10.0654 12.3796 10.372 11.0739 10.9244ZM17.1439 16.7019C17.1439 18.839 18.8552 20.5708 20.9669 20.5708C23.0786 20.5708 24.7899 18.839 24.7899 16.7019C24.7899 14.5648 23.0787 12.8329 20.9669 12.8329C18.8552 12.8329 17.1439 14.5648 17.1439 16.7019ZM18.963 16.7002C18.963 15.5796 19.8597 14.6721 20.9669 14.6721C22.0741 14.6721 22.9708 15.5814 22.9708 16.7002C22.9708 17.8206 22.0741 18.7281 20.9669 18.7281C19.8597 18.7281 18.963 17.8206 18.963 16.7002ZM9.66724 18.7299C10.7744 18.7299 11.6712 17.8224 11.6712 16.7019C11.6712 15.5814 10.7744 14.6721 9.66724 14.6739C8.56006 14.6739 7.66333 15.5814 7.66333 16.7019C7.66333 17.8224 8.56006 18.7299 9.66724 18.7299Z" fill="white"/>
</g>
<defs>
<clipPath id="clip0_1_227">
<rect width="144" height="31" fill="white"/>
</clipPath>
</defs>
</svg>
