<svg width="135" height="34" viewBox="0 0 135 34" fill="none" xmlns="http://www.w3.org/2000/svg">
<path d="M35.4908 12.1841H49.1116V14.731H43.7488V29.0883H40.8091V14.731H35.4684L35.4908 12.1841ZM48.5284 16.8496H51.0419V19.2162H51.0865C51.1766 18.8782 51.3339 18.5626 51.5578 18.2471C51.7824 17.9315 52.0517 17.6385 52.3883 17.3906C52.7022 17.1201 53.0615 16.9172 53.4654 16.7594C53.8466 16.6017 54.2505 16.5115 54.6544 16.5115C54.9691 16.5115 55.193 16.5341 55.3057 16.5341C55.4176 16.5566 55.5523 16.5792 55.6642 16.5792V19.1711C55.485 19.1261 55.283 19.1035 55.081 19.081C54.8791 19.0585 54.6998 19.0359 54.4979 19.0359C54.0486 19.0359 53.6227 19.1261 53.2188 19.3063C52.8149 19.4867 52.4775 19.7572 52.1636 20.0952C51.8717 20.4559 51.6251 20.8841 51.4458 21.4025C51.2658 21.9209 51.1766 22.5295 51.1766 23.2056V29.0207H48.4837L48.5284 16.8496ZM68.0289 29.0883H65.3589V27.3753H65.3135C64.9769 28.0064 64.4837 28.4797 63.8325 28.8629C63.182 29.2461 62.5088 29.4264 61.8356 29.4264C60.2419 29.4264 59.0755 29.0432 58.357 28.2318C57.6391 27.4429 57.2799 26.2258 57.2799 24.6256V16.8496H59.9726V24.3551C59.9726 25.437 60.1746 26.2033 60.6012 26.6315C61.0051 27.0824 61.589 27.3077 62.3288 27.3077C62.89 27.3077 63.3612 27.2176 63.7432 27.0372C64.1244 26.8569 64.4383 26.6315 64.663 26.3385C64.9096 26.0456 65.0669 25.6849 65.1788 25.2792C65.2915 24.8735 65.3362 24.4227 65.3362 23.9494V16.8496H68.0289V29.0883ZM72.5846 25.1665C72.6739 25.9554 72.9659 26.4963 73.4817 26.8344C73.9976 27.15 74.6261 27.3077 75.3447 27.3077C75.5913 27.3077 75.8833 27.2852 76.1972 27.2401C76.5111 27.195 76.8257 27.1274 77.095 27.0147C77.3862 26.902 77.6109 26.7443 77.7901 26.5189C77.9701 26.2935 78.0594 26.023 78.0375 25.6849C78.0148 25.3468 77.9028 25.0538 77.6555 24.8284C77.4089 24.6031 77.1169 24.4453 76.7584 24.2875C76.3991 24.1523 75.9725 24.0396 75.5013 23.9494C75.0301 23.8592 74.5588 23.7466 74.0657 23.6339C73.5717 23.5212 73.0778 23.3859 72.6066 23.2282C72.1354 23.0704 71.7314 22.8676 71.3502 22.5745C70.9909 22.3041 70.677 21.966 70.4751 21.5377C70.2504 21.1095 70.1385 20.6136 70.1385 19.9826C70.1385 19.3063 70.2951 18.7654 70.6317 18.3147C70.9463 17.8639 71.3722 17.5032 71.8661 17.2328C72.36 16.9623 72.9205 16.7594 73.5263 16.6468C74.1322 16.5341 74.7162 16.489 75.2547 16.489C75.8833 16.489 76.4891 16.5566 77.0496 16.6918C77.6109 16.8271 78.1494 17.0299 78.5979 17.3455C79.0692 17.6385 79.4512 18.0442 79.7424 18.5175C80.057 18.9908 80.2363 19.5768 80.3263 20.253H77.5208C77.3862 19.5994 77.095 19.1711 76.6457 18.9458C76.1745 18.7204 75.6586 18.6076 75.0527 18.6076C74.8735 18.6076 74.6261 18.6302 74.3796 18.6528C74.1103 18.6978 73.8856 18.7429 73.6391 18.833C73.4144 18.9232 73.2124 19.0585 73.0551 19.2162C72.8985 19.374 72.8085 19.5994 72.8085 19.8698C72.8085 20.2079 72.9205 20.4559 73.1451 20.6587C73.3698 20.8616 73.6617 21.0194 74.043 21.1771C74.4023 21.3123 74.8281 21.4251 75.2993 21.5152C75.7706 21.6054 76.2645 21.718 76.7584 21.8308C77.2516 21.9434 77.7228 22.0787 78.194 22.2365C78.6653 22.3942 79.0919 22.5971 79.4512 22.89C79.8097 23.1606 80.1243 23.4987 80.3482 23.9044C80.5729 24.31 80.6848 24.8284 80.6848 25.4145C80.6848 26.1357 80.5283 26.7443 80.1917 27.2626C79.8551 27.7585 79.4285 28.1868 78.9126 28.5023C78.396 28.8179 77.7901 29.0432 77.1623 29.201C76.5111 29.3362 75.8833 29.4264 75.2547 29.4264C74.4915 29.4264 73.7737 29.3362 73.1232 29.156C72.4719 28.9756 71.8888 28.7051 71.4175 28.3671C70.9463 28.0064 70.5643 27.5782 70.2951 27.0372C70.0258 26.5189 69.8692 25.8878 69.8465 25.144H72.562V25.1665H72.5846ZM81.448 16.8496H83.4903V13.1533H86.183V16.8271H88.6065V18.833H86.183V25.3694C86.183 25.6624 86.2057 25.8878 86.2276 26.1132C86.2503 26.316 86.3177 26.4963 86.385 26.6315C86.475 26.7668 86.6096 26.8795 86.7662 26.9471C86.9462 27.0147 87.1701 27.0598 87.4848 27.0598C87.664 27.0598 87.866 27.0598 88.0453 27.0372C88.2253 27.0147 88.4272 26.9922 88.6065 26.9471V29.0432C88.3145 29.0883 88.0233 29.1108 87.7313 29.1334C87.4394 29.1784 87.1701 29.1784 86.8562 29.1784C86.1384 29.1784 85.5772 29.1108 85.1505 28.9756C84.7247 28.8404 84.3881 28.6375 84.1408 28.3896C83.8942 28.1192 83.7369 27.8036 83.6476 27.4204C83.5576 27.0372 83.5122 26.5639 83.4903 26.0681V18.8556H81.448V16.8046V16.8496ZM90.4914 16.8496H93.0268V18.5175H93.0722C93.4534 17.7962 93.9701 17.3004 94.6432 16.9849C95.3164 16.6693 96.0342 16.5115 96.8421 16.5115C97.8072 16.5115 98.637 16.6693 99.3555 17.0299C100.073 17.368 100.657 17.8188 101.128 18.4273C101.599 19.0134 101.958 19.712 102.183 20.5009C102.407 21.2898 102.541 22.1463 102.541 23.0253C102.541 23.8592 102.43 24.6481 102.228 25.4145C102.003 26.1808 101.689 26.8795 101.262 27.4655C100.837 28.0515 100.298 28.5248 99.6248 28.8855C98.9516 29.2461 98.1884 29.4264 97.2906 29.4264C96.9094 29.4264 96.5055 29.3813 96.1235 29.3137C95.7423 29.2461 95.361 29.1334 95.0018 28.9756C94.6432 28.8179 94.3059 28.615 94.0147 28.3671C93.7 28.1192 93.4534 27.8261 93.2515 27.5105H93.2069V33.6186H90.5141V16.8496H90.4914ZM99.8941 22.9802C99.8941 22.4393 99.8268 21.8984 99.6694 21.3799C99.5348 20.8616 99.3102 20.4108 99.0189 20.0051C98.727 19.5994 98.3677 19.2839 97.9638 19.0359C97.5379 18.788 97.044 18.6752 96.5055 18.6752C95.383 18.6752 94.5305 19.0585 93.9474 19.8473C93.3861 20.6362 93.0942 21.6955 93.0942 23.0028C93.0942 23.6339 93.1615 24.1973 93.3188 24.7157C93.4761 25.2341 93.6781 25.6849 93.992 26.0681C94.284 26.4513 94.6432 26.7443 95.0691 26.9696C95.4957 27.195 95.9669 27.3077 96.5282 27.3077C97.156 27.3077 97.6499 27.1725 98.0765 26.9246C98.5023 26.6767 98.8389 26.3385 99.1309 25.9554C99.4002 25.5497 99.6021 25.0989 99.7141 24.5805C99.8268 24.0396 99.8941 23.5211 99.8941 22.9802ZM104.628 12.1841H107.322V14.731H104.628V12.1841ZM104.628 16.8496H107.322V29.0883H104.628V16.8496ZM109.723 12.1841H112.415V29.0883H109.723V12.1841ZM120.628 29.4264C119.664 29.4264 118.789 29.2686 118.026 28.9305C117.262 28.5925 116.635 28.1642 116.096 27.6007C115.579 27.0372 115.175 26.3385 114.906 25.5497C114.637 24.7608 114.48 23.8818 114.48 22.9577C114.48 22.0336 114.614 21.1771 114.906 20.3883C115.175 19.5994 115.579 18.9232 116.096 18.3372C116.612 17.7738 117.262 17.3229 118.026 17.0074C118.789 16.6918 119.664 16.5115 120.628 16.5115C121.593 16.5115 122.469 16.6693 123.232 17.0074C123.994 17.3229 124.623 17.7738 125.161 18.3372C125.677 18.9007 126.081 19.5994 126.35 20.3883C126.62 21.1771 126.777 22.0336 126.777 22.9577C126.777 23.9044 126.642 24.7608 126.35 25.5497C126.059 26.3385 125.677 27.0147 125.161 27.6007C124.645 28.1642 123.994 28.615 123.232 28.9305C122.469 29.2461 121.616 29.4264 120.628 29.4264ZM120.628 27.2852C121.212 27.2852 121.751 27.15 122.177 26.902C122.626 26.6541 122.962 26.316 123.254 25.9103C123.546 25.5046 123.748 25.0313 123.882 24.5355C124.017 24.017 124.084 23.4987 124.084 22.9577C124.084 22.4393 124.017 21.9209 123.882 21.4025C123.748 20.8841 123.546 20.4333 123.254 20.0276C122.962 19.6219 122.603 19.3063 122.177 19.0585C121.728 18.8106 121.212 18.6752 120.628 18.6752C120.045 18.6752 119.507 18.8106 119.08 19.0585C118.631 19.3063 118.295 19.6444 118.003 20.0276C117.712 20.4333 117.509 20.8841 117.374 21.4025C117.24 21.9209 117.173 22.4393 117.173 22.9577C117.173 23.4987 117.24 24.017 117.374 24.5355C117.509 25.0538 117.712 25.5046 118.003 25.9103C118.295 26.316 118.654 26.6541 119.08 26.902C119.529 27.1725 120.045 27.2852 120.628 27.2852ZM127.585 16.8496H129.627V13.1533H132.32V16.8271H134.743V18.833H132.32V25.3694C132.32 25.6624 132.342 25.8878 132.364 26.1132C132.387 26.316 132.454 26.4963 132.522 26.6315C132.612 26.7668 132.746 26.8795 132.903 26.9471C133.083 27.0147 133.307 27.0598 133.622 27.0598C133.801 27.0598 134.003 27.0598 134.182 27.0372C134.362 27.0147 134.564 26.9922 134.743 26.9471V29.0432C134.451 29.0883 134.16 29.1108 133.868 29.1334C133.576 29.1784 133.307 29.1784 132.993 29.1784C132.275 29.1784 131.714 29.1108 131.287 28.9756C130.861 28.8404 130.525 28.6375 130.278 28.3896C130.031 28.1192 129.874 27.8036 129.784 27.4204C129.694 27.0372 129.65 26.5639 129.627 26.0681V18.8556H127.585V16.8046V16.8496Z" fill="white"/>
<path d="M32.3124 12.295H19.9928L16.2004 0.529541L12.3856 12.295L0.06604 12.2724L10.0294 19.5525L6.21458 31.3179L16.178 24.0377L26.1414 31.3179L22.349 19.5525L32.3124 12.295Z" fill="white"/>
<path d="M23.2195 22.2593L22.3668 19.5996L16.2183 24.0849L23.2195 22.2593Z" fill="#005128"/>
</svg>
