<svg width="54" height="52" viewBox="0 0 54 52" fill="none" xmlns="http://www.w3.org/2000/svg">
<g opacity="0.75" filter="url(#filter0_d_1_317)">
<path d="M49.3856 12.0605C47.7438 12.7869 45.9799 13.2721 44.1213 13.501C46.0134 12.3779 47.4661 10.5896 48.1497 8.47168C46.3796 9.50928 44.4204 10.2722 42.333 10.672C40.6698 8.90808 38.2925 7.8125 35.6619 7.8125C30.6051 7.8125 26.5066 11.8744 26.5066 16.8823C26.5066 17.5934 26.589 18.2831 26.7446 18.9545C19.1396 18.5699 12.3953 14.9567 7.88171 9.46655C7.08826 10.8093 6.6427 12.3779 6.6427 14.035C6.6427 17.1844 8.25403 19.9585 10.7137 21.5912C9.21228 21.5454 7.79932 21.1273 6.56335 20.459C6.56335 20.4865 6.56335 20.5261 6.56335 20.5627C6.56335 24.9634 9.71887 28.6285 13.9028 29.4647C13.1368 29.6722 12.3312 29.7882 11.498 29.7882C10.906 29.7882 10.3292 29.7211 9.77075 29.6204C10.9365 33.2184 14.3179 35.8459 18.3218 35.9253C15.1876 38.3545 11.2417 39.8071 6.95093 39.8071C6.20935 39.8071 5.48608 39.7644 4.76892 39.679C8.82166 42.2455 13.6343 43.75 18.8009 43.75C35.6375 43.75 44.8446 29.9255 44.8446 17.9321C44.8446 17.5385 44.8324 17.1478 44.8141 16.7603C46.6116 15.4907 48.1619 13.8916 49.3856 12.0605Z" fill="white"/>
</g>
<defs>
<filter id="filter0_d_1_317" x="-3" y="0" width="58" height="58" filterUnits="userSpaceOnUse" color-interpolation-filters="sRGB">
<feFlood flood-opacity="0" result="BackgroundImageFix"/>
<feColorMatrix in="SourceAlpha" type="matrix" values="0 0 0 0 0 0 0 0 0 0 0 0 0 0 0 0 0 0 127 0" result="hardAlpha"/>
<feOffset dy="4"/>
<feGaussianBlur stdDeviation="2"/>
<feComposite in2="hardAlpha" operator="out"/>
<feColorMatrix type="matrix" values="0 0 0 0 0 0 0 0 0 0 0 0 0 0 0 0 0 0 0.25 0"/>
<feBlend mode="normal" in2="BackgroundImageFix" result="effect1_dropShadow_1_317"/>
<feBlend mode="normal" in="SourceGraphic" in2="effect1_dropShadow_1_317" result="shape"/>
</filter>
</defs>
</svg>
