<svg width="50" height="50" viewBox="0 0 50 50" fill="none" xmlns="http://www.w3.org/2000/svg">
<g opacity="0.75">
<path d="M44.1071 13.6261C43.8416 12.5031 42.9962 11.5997 41.8671 11.2427C38.8763 10.2936 32.3853 9.375 25 9.375C17.6147 9.375 11.1237 10.2936 8.13293 11.2427C7.00378 11.5997 6.15845 12.5031 5.89294 13.6261C5.39246 15.7501 4.6875 19.6899 4.6875 25C4.6875 30.3101 5.39246 34.2499 5.89294 36.3739C6.15845 37.4969 7.00378 38.4003 8.13293 38.7573C11.1237 39.7064 17.6147 40.625 25 40.625C32.3853 40.625 38.8763 39.7064 41.8671 38.7573C42.9962 38.4003 43.8416 37.4969 44.1071 36.3739C44.6075 34.2499 45.3125 30.3101 45.3125 25C45.3125 19.6899 44.6075 15.7501 44.1071 13.6261ZM21.0938 31.25V18.75L32.6996 25L21.0938 31.25Z" fill="white"/>
</g>
</svg>
